<svg id="Layer_4" data-name="Layer 4" xmlns="http://www.w3.org/2000/svg" viewBox="0 0 4713.71 743"><defs><style>.cls-1{fill:#a0b070;}.cls-2{fill:#9acaef;}</style></defs><path class="cls-1" d="M.14,3.58H153.61V44H53.68V702.57h99.93V743H.14Z"/><path class="cls-2" d="M250.27,194.37h58.42l6,60.6H317c36.57-39.51,80.29-70.92,130.06-70.92,63.9,0,98.15,30.6,115.39,79.65,43.4-47,87-79.65,137.84-79.65,85.89,0,127.16,56.83,127.16,163.45V612.31H756.73V356.63c0-77.85-24.62-111.17-77.76-111.17-32.41,0-66.09,21.19-104.75,64.19V612.31H503.5V356.63c0-77.85-24.62-111.17-77.77-111.17-31.32,0-66.08,21.19-104.74,64.19V612.31H250.27Z"/><path class="cls-2" d="M932,403.88c0-136,91.68-219.83,187.87-219.83,106.61,0,166.79,76.56,166.79,196.12,0,14.92-1.26,29.85-3.3,40.17H1001.92c5.06,88.53,59.2,145.94,138.86,145.94,40.1,0,73-12.94,104-33.4l25.33,46.4c-36.65,24-81.17,43.35-138,43.35C1020.7,622.63,932,541.17,932,403.88Zm292.17-34.2c0-83.75-37.67-129.28-103-129.28-58.75,0-111.26,47.17-119.86,129.28Z"/><path class="cls-2" d="M1351.6,503.81c0-91.05,78.56-136.57,256.69-155.94-.18-53.78-18-105.57-86.27-105.57-48.34,0-91.88,22.9-124.64,44.8l-27.68-48.47c38.45-25.25,97.1-54.58,164.16-54.58,102,0,145.15,67.8,145.15,171.85V612.31h-58.43l-6-50h-2.36c-39.82,33.12-86.35,60.28-138.21,60.28C1404.1,622.63,1351.6,579.2,1351.6,503.81Zm256.69,6.52V394.27c-140.06,16.84-187.41,51.14-187.41,104.56,0,47.49,32.23,66.82,73.24,66.82C1534.49,565.65,1567.81,546,1608.29,510.33Z"/><path class="cls-2" d="M1781.06,403.88c0-135.57,85.53-219.83,180.83-219.83,48.6,0,80.46,18.28,117.12,48.42l-3-71.68V-.23h70.72V612.31h-58.42l-6-49.33H2080c-32.5,32.49-77,59.65-126.81,59.65C1848.76,622.63,1781.06,543.17,1781.06,403.88Zm295,102.2V287c-35.67-31.78-67.81-43.46-101.94-43.46-66.81,0-119.95,64.47-119.95,159.69,0,100.2,41.46,159.87,114.7,159.87C2007.5,563.12,2041,544.28,2076,506.08Z"/><path class="cls-2" d="M2257,403.88c0-139.46,91.22-219.83,193.67-219.83s193.67,80.37,193.67,219.83c0,138.38-91.23,218.75-193.67,218.75S2257,542.26,2257,403.88Zm314.26,0c0-95.77-48.71-160.95-120.59-160.95s-120.59,65.18-120.59,161,48.71,159.87,120.59,159.87S2571.25,499.66,2571.25,403.88Z"/><path class="cls-2" d="M2700.75,194.37H2773l62,241.42c9,39.72,16.83,77.28,24.8,116.56h3.44c9.05-39.28,18.1-77.47,28.42-116.56l64.54-241.42h69l65.18,241.42c10.32,39.72,19.37,77.28,29.06,116.56h3.43c9.06-39.28,16.84-76.84,25.89-116.56l60.93-241.42h67.39L3165,612.31h-86.1l-60.3-224.59c-10.14-39.55-18.1-78-28.24-120.41h-3.44c-9.05,42.4-17.47,81.94-28.7,121.5l-58.57,223.5H2817Z"/><path class="cls-2" d="M3368,194.37h58.43l6,76.12h2.35c29.09-53,71.81-86.44,118.83-86.44,18.5,0,31.49,2.35,44.61,8.6l-13.21,62c-14.39-4.52-23.8-6.88-40.54-6.88-35.3,0-77.47,25.44-105.72,96.14V612.31H3368Z"/><path class="cls-2" d="M3660.7,459.18V194.37h70.73V450.05c0,77.85,23.54,111.17,78.85,111.17,42.73,0,72.34-21.19,111.9-70.44V194.37h70.72V612.31h-58.43l-6-65.44h-2.36c-38.73,45.62-80.46,75.76-137.84,75.76C3700.26,622.63,3660.7,565.8,3660.7,459.18Z"/><path class="cls-2" d="M4134.06,194.37h58.42l6,60.28h2.35c39.82-39.19,82.81-70.6,140.19-70.6,88.06,0,127.61,56.83,127.61,163.45V612.31h-70.72V356.63c0-77.85-23.54-111.17-78.86-111.17-42.73,0-72.33,21.82-114.25,64.19V612.31h-70.72Z"/><path class="cls-1" d="M4560.1,702.57H4660V44H4560.1V3.58h153.47V743H4560.1Z"/></svg>