<?xml version="1.0" encoding="utf-8"?>
<!-- Generator: Adobe Illustrator 24.1.2, SVG Export Plug-In . SVG Version: 6.00 Build 0)  -->
<svg version="1.1" xmlns="http://www.w3.org/2000/svg" xmlns:xlink="http://www.w3.org/1999/xlink" x="0px" y="0px"
	 viewBox="0 0 4713.7 743" style="enable-background:new 0 0 4713.7 743;" xml:space="preserve">
<style type="text/css">
	.st0{display:none;}
	.st1{display:inline;}
	.st2{fill:#A0B070;}
	.st3{fill:#9ACAEF;}
	.st4{fill:#8BB174;}
	.st5{fill:#3581B8;}
</style>
<g id="v2" class="st0">
	<g class="st1">
		<path class="st2" d="M0.5-0.3h154.2v40.6H54.3v661.6h100.4v40.6H0.5V-0.3z"/>
		<path class="st3" d="M251.8,191.4h58.7l6,60.9h2.4c36.7-39.7,80.7-71.2,130.7-71.2c64.2,0,98.6,30.7,115.9,80
			c43.6-47.2,87.4-80,138.5-80c86.3,0,127.7,57.1,127.7,164.2v266h-71.1V354.4c0-78.2-24.7-111.7-78.1-111.7
			c-32.6,0-66.4,21.3-105.2,64.5v304.1h-71.1V354.4c0-78.2-24.7-111.7-78.1-111.7c-31.5,0-66.4,21.3-105.2,64.5v304.1h-71.1V191.4z"
			/>
		<path class="st2" d="M923.3,701.9h100.4V40.3H923.3V-0.3h154.2v742.9H923.3V701.9z"/>
	</g>
</g>
<g id="Layer_4">
	<path class="st4" d="M0.1,3.6h153.5V44H53.7v658.6h99.9V743H0.1V3.6z"/>
	<path class="st5" d="M250.3,194.4h58.4l6,60.6h2.4c36.6-39.5,80.3-70.9,130.1-70.9c63.9,0,98.2,30.6,115.4,79.7
		c43.4-47,87-79.7,137.8-79.7c85.9,0,127.2,56.8,127.2,163.4v264.8h-70.7V356.6c0-77.8-24.6-111.2-77.8-111.2
		c-32.4,0-66.1,21.2-104.7,64.2v302.7h-70.7V356.6c0-77.8-24.6-111.2-77.8-111.2c-31.3,0-66.1,21.2-104.7,64.2v302.7h-70.7V194.4z"
		/>
	<path class="st5" d="M932,403.9c0-136,91.7-219.8,187.9-219.8c106.6,0,166.8,76.6,166.8,196.1c0,14.9-1.3,29.9-3.3,40.2h-281.4
		c5.1,88.5,59.2,145.9,138.9,145.9c40.1,0,73-12.9,104-33.4l25.3,46.4c-36.6,24-81.2,43.3-138,43.3
		C1020.7,622.6,932,541.2,932,403.9z M1224.2,369.7c0-83.8-37.7-129.3-103-129.3c-58.8,0-111.3,47.2-119.9,129.3H1224.2z"/>
	<path class="st5" d="M1351.6,503.8c0-91,78.6-136.6,256.7-155.9c-0.2-53.8-18-105.6-86.3-105.6c-48.3,0-91.9,22.9-124.6,44.8
		l-27.7-48.5c38.5-25.2,97.1-54.6,164.2-54.6c102,0,145.1,67.8,145.1,171.8v256.4h-58.4l-6-50h-2.4c-39.8,33.1-86.4,60.3-138.2,60.3
		C1404.1,622.6,1351.6,579.2,1351.6,503.8z M1608.3,510.3V394.3c-140.1,16.8-187.4,51.1-187.4,104.6c0,47.5,32.2,66.8,73.2,66.8
		C1534.5,565.6,1567.8,546,1608.3,510.3z"/>
	<path class="st5" d="M1781.1,403.9c0-135.6,85.5-219.8,180.8-219.8c48.6,0,80.5,18.3,117.1,48.4l-3-71.7v-161h70.7v612.5h-58.4
		l-6-49.3h-2.4c-32.5,32.5-77,59.6-126.8,59.6C1848.8,622.6,1781.1,543.2,1781.1,403.9z M2076,506.1V287
		c-35.7-31.8-67.8-43.5-101.9-43.5c-66.8,0-120,64.5-120,159.7c0,100.2,41.5,159.9,114.7,159.9C2007.5,563.1,2041,544.3,2076,506.1z
		"/>
	<path class="st5" d="M2257,403.9c0-139.5,91.2-219.8,193.7-219.8s193.7,80.4,193.7,219.8c0,138.4-91.2,218.7-193.7,218.7
		S2257,542.3,2257,403.9z M2571.3,403.9c0-95.8-48.7-161-120.6-161c-71.9,0-120.6,65.2-120.6,161s48.7,159.9,120.6,159.9
		C2522.5,563.8,2571.3,499.7,2571.3,403.9z"/>
	<path class="st5" d="M2700.7,194.4h72.3l62,241.4c9,39.7,16.8,77.3,24.8,116.6h3.4c9-39.3,18.1-77.5,28.4-116.6l64.5-241.4h69
		l65.2,241.4c10.3,39.7,19.4,77.3,29.1,116.6h3.4c9.1-39.3,16.8-76.8,25.9-116.6l60.9-241.4h67.4L3165,612.3h-86.1l-60.3-224.6
		c-10.1-39.6-18.1-78-28.2-120.4h-3.4c-9.1,42.4-17.5,81.9-28.7,121.5l-58.6,223.5H2817L2700.7,194.4z"/>
	<path class="st5" d="M3368,194.4h58.4l6,76.1h2.4c29.1-53,71.8-86.4,118.8-86.4c18.5,0,31.5,2.4,44.6,8.6l-13.2,62
		c-14.4-4.5-23.8-6.9-40.5-6.9c-35.3,0-77.5,25.4-105.7,96.1v268.4H3368V194.4z"/>
	<path class="st5" d="M3660.7,459.2V194.4h70.7v255.7c0,77.8,23.5,111.2,78.9,111.2c42.7,0,72.3-21.2,111.9-70.4V194.4h70.7v417.9
		h-58.4l-6-65.4h-2.4c-38.7,45.6-80.5,75.8-137.8,75.8C3700.3,622.6,3660.7,565.8,3660.7,459.2z"/>
	<path class="st5" d="M4134.1,194.4h58.4l6,60.3h2.4c39.8-39.2,82.8-70.6,140.2-70.6c88.1,0,127.6,56.8,127.6,163.4v264.8h-70.7
		V356.6c0-77.8-23.5-111.2-78.9-111.2c-42.7,0-72.3,21.8-114.3,64.2v302.7h-70.7V194.4z"/>
	<path class="st4" d="M4560.1,702.6h99.9V44h-99.9V3.6h153.5V743h-153.5V702.6z"/>
</g>
<g id="v1_color_guide" class="st0">
	
		<image style="display:inline;overflow:visible;" width="2978" height="136" xlink:href="2A61098D.jpg"  transform="matrix(1 0 0 1 -745 -346)">
	</image>
	
		<image style="display:inline;overflow:visible;" width="999" height="53" xlink:href="2A61098F.jpg"  transform="matrix(1 0 0 1 -255 -182)">
	</image>
</g>
</svg>
